<mxfile host="app.diagrams.net" modified="2023-09-04T09:07:50.528Z" agent="Mozilla/5.0 (Windows NT 10.0; Win64; x64; rv:109.0) Gecko/20100101 Firefox/117.0" version="21.7.2" etag="_1IPZbBvEW-ldZIXvtX0" type="github">
  <diagram name="第 1 页" id="HadWFH1PTdkl9qIzULli">
    <mxGraphModel>
      <root>
        <mxCell id="0" />
        <mxCell id="1" parent="0" />
      </root>
    </mxGraphModel>
  </diagram>
</mxfile>
